<svg width="69" height="24" viewBox="0 0 69 24" fill="none" xmlns="http://www.w3.org/2000/svg">
<rect opacity="0.1" width="69" height="24" rx="2" fill="url(#paint0_linear)"/>
<path d="M15.1837 7.504H16.2277L19.8637 16H18.5197L17.6677 13.9H13.6237L12.7837 16H11.4397L15.1837 7.504ZM17.2477 12.892L15.6637 8.992H15.6397L14.0317 12.892H17.2477ZM20.693 10.312H21.773V11.128H21.797C22.005 10.824 22.289 10.588 22.649 10.42C23.017 10.252 23.393 10.168 23.777 10.168C24.217 10.168 24.613 10.244 24.965 10.396C25.325 10.548 25.629 10.76 25.877 11.032C26.133 11.304 26.329 11.624 26.465 11.992C26.601 12.352 26.669 12.74 26.669 13.156C26.669 13.58 26.601 13.976 26.465 14.344C26.329 14.704 26.133 15.02 25.877 15.292C25.629 15.556 25.325 15.764 24.965 15.916C24.613 16.068 24.217 16.144 23.777 16.144C23.369 16.144 22.985 16.06 22.625 15.892C22.265 15.716 21.989 15.48 21.797 15.184H21.773V19.384H20.693V10.312ZM23.645 11.176C23.357 11.176 23.097 11.228 22.865 11.332C22.633 11.428 22.437 11.564 22.277 11.74C22.117 11.908 21.993 12.116 21.905 12.364C21.817 12.604 21.773 12.868 21.773 13.156C21.773 13.444 21.817 13.712 21.905 13.96C21.993 14.2 22.117 14.408 22.277 14.584C22.437 14.752 22.633 14.888 22.865 14.992C23.097 15.088 23.357 15.136 23.645 15.136C23.933 15.136 24.193 15.088 24.425 14.992C24.657 14.888 24.853 14.752 25.013 14.584C25.173 14.408 25.297 14.2 25.385 13.96C25.473 13.712 25.517 13.444 25.517 13.156C25.517 12.868 25.473 12.604 25.385 12.364C25.297 12.116 25.173 11.908 25.013 11.74C24.853 11.564 24.657 11.428 24.425 11.332C24.193 11.228 23.933 11.176 23.645 11.176ZM28.0289 10.312H29.1089V11.128H29.1329C29.3409 10.824 29.6249 10.588 29.9849 10.42C30.3529 10.252 30.7289 10.168 31.1129 10.168C31.5529 10.168 31.9489 10.244 32.3009 10.396C32.6609 10.548 32.9649 10.76 33.2129 11.032C33.4689 11.304 33.6649 11.624 33.8009 11.992C33.9369 12.352 34.0049 12.74 34.0049 13.156C34.0049 13.58 33.9369 13.976 33.8009 14.344C33.6649 14.704 33.4689 15.02 33.2129 15.292C32.9649 15.556 32.6609 15.764 32.3009 15.916C31.9489 16.068 31.5529 16.144 31.1129 16.144C30.7049 16.144 30.3209 16.06 29.9609 15.892C29.6009 15.716 29.3249 15.48 29.1329 15.184H29.1089V19.384H28.0289V10.312ZM30.9809 11.176C30.6929 11.176 30.4329 11.228 30.2009 11.332C29.9689 11.428 29.7729 11.564 29.6129 11.74C29.4529 11.908 29.3289 12.116 29.2409 12.364C29.1529 12.604 29.1089 12.868 29.1089 13.156C29.1089 13.444 29.1529 13.712 29.2409 13.96C29.3289 14.2 29.4529 14.408 29.6129 14.584C29.7729 14.752 29.9689 14.888 30.2009 14.992C30.4329 15.088 30.6929 15.136 30.9809 15.136C31.2689 15.136 31.5289 15.088 31.7609 14.992C31.9929 14.888 32.1889 14.752 32.3489 14.584C32.5089 14.408 32.6329 14.2 32.7209 13.96C32.8089 13.712 32.8529 13.444 32.8529 13.156C32.8529 12.868 32.8089 12.604 32.7209 12.364C32.6329 12.116 32.5089 11.908 32.3489 11.74C32.1889 11.564 31.9929 11.428 31.7609 11.332C31.5289 11.228 31.2689 11.176 30.9809 11.176ZM35.3648 10.312H36.4448V11.188H36.4688C36.5408 11.036 36.6368 10.9 36.7568 10.78C36.8768 10.652 37.0088 10.544 37.1528 10.456C37.3048 10.368 37.4688 10.3 37.6448 10.252C37.8208 10.196 37.9968 10.168 38.1728 10.168C38.3488 10.168 38.5088 10.192 38.6528 10.24L38.6048 11.404C38.5168 11.38 38.4288 11.36 38.3408 11.344C38.2528 11.328 38.1648 11.32 38.0768 11.32C37.5488 11.32 37.1448 11.468 36.8648 11.764C36.5848 12.06 36.4448 12.52 36.4448 13.144V16H35.3648V10.312ZM40.4713 13.156C40.4713 13.444 40.5153 13.712 40.6033 13.96C40.6913 14.2 40.8153 14.408 40.9753 14.584C41.1353 14.752 41.3313 14.888 41.5633 14.992C41.7953 15.088 42.0553 15.136 42.3433 15.136C42.6313 15.136 42.8913 15.088 43.1233 14.992C43.3553 14.888 43.5513 14.752 43.7113 14.584C43.8713 14.408 43.9953 14.2 44.0833 13.96C44.1713 13.712 44.2153 13.444 44.2153 13.156C44.2153 12.868 44.1713 12.604 44.0833 12.364C43.9953 12.116 43.8713 11.908 43.7113 11.74C43.5513 11.564 43.3553 11.428 43.1233 11.332C42.8913 11.228 42.6313 11.176 42.3433 11.176C42.0553 11.176 41.7953 11.228 41.5633 11.332C41.3313 11.428 41.1353 11.564 40.9753 11.74C40.8153 11.908 40.6913 12.116 40.6033 12.364C40.5153 12.604 40.4713 12.868 40.4713 13.156ZM39.3193 13.156C39.3193 12.74 39.3953 12.352 39.5473 11.992C39.7073 11.632 39.9233 11.316 40.1953 11.044C40.4673 10.772 40.7873 10.56 41.1553 10.408C41.5233 10.248 41.9193 10.168 42.3433 10.168C42.7673 10.168 43.1633 10.248 43.5313 10.408C43.8993 10.56 44.2193 10.772 44.4913 11.044C44.7633 11.316 44.9753 11.632 45.1273 11.992C45.2873 12.352 45.3673 12.74 45.3673 13.156C45.3673 13.572 45.2873 13.964 45.1273 14.332C44.9753 14.692 44.7633 15.008 44.4913 15.28C44.2193 15.544 43.8993 15.756 43.5313 15.916C43.1633 16.068 42.7673 16.144 42.3433 16.144C41.9193 16.144 41.5233 16.068 41.1553 15.916C40.7873 15.756 40.4673 15.544 40.1953 15.28C39.9233 15.008 39.7073 14.692 39.5473 14.332C39.3953 13.964 39.3193 13.572 39.3193 13.156ZM46.0363 10.312H47.2843L48.9883 14.668L50.6203 10.312H51.7723L49.5403 16H48.3523L46.0363 10.312ZM53.5363 13.552C53.5363 13.8 53.5883 14.028 53.6923 14.236C53.8043 14.436 53.9483 14.608 54.1243 14.752C54.3003 14.896 54.5043 15.008 54.7363 15.088C54.9683 15.168 55.2083 15.208 55.4563 15.208C55.7923 15.208 56.0843 15.132 56.3323 14.98C56.5803 14.82 56.8083 14.612 57.0163 14.356L57.8323 14.98C57.2323 15.756 56.3923 16.144 55.3123 16.144C54.8643 16.144 54.4563 16.068 54.0883 15.916C53.7283 15.764 53.4203 15.556 53.1643 15.292C52.9163 15.02 52.7243 14.704 52.5883 14.344C52.4523 13.976 52.3843 13.58 52.3843 13.156C52.3843 12.732 52.4563 12.34 52.6003 11.98C52.7523 11.612 52.9563 11.296 53.2123 11.032C53.4763 10.76 53.7883 10.548 54.1483 10.396C54.5083 10.244 54.9003 10.168 55.3243 10.168C55.8283 10.168 56.2523 10.256 56.5963 10.432C56.9483 10.608 57.2363 10.84 57.4603 11.128C57.6843 11.408 57.8443 11.728 57.9403 12.088C58.0443 12.44 58.0963 12.8 58.0963 13.168V13.552H53.5363ZM56.9443 12.688C56.9363 12.448 56.8963 12.228 56.8243 12.028C56.7603 11.828 56.6603 11.656 56.5243 11.512C56.3883 11.36 56.2163 11.244 56.0083 11.164C55.8083 11.076 55.5723 11.032 55.3003 11.032C55.0363 11.032 54.7923 11.084 54.5683 11.188C54.3523 11.284 54.1683 11.412 54.0163 11.572C53.8643 11.732 53.7443 11.912 53.6563 12.112C53.5763 12.304 53.5363 12.496 53.5363 12.688H56.9443Z" fill="url(#paint1_linear)"/>
<defs>
<linearGradient id="paint0_linear" x1="34.5" y1="0" x2="34.5" y2="24" gradientUnits="userSpaceOnUse">
<stop stop-color="#3CF71E"/>
<stop offset="1" stop-color="#0BDC5F"/>
</linearGradient>
<linearGradient id="paint1_linear" x1="35" y1="4" x2="35" y2="20" gradientUnits="userSpaceOnUse">
<stop stop-color="#3CF71E"/>
<stop offset="1" stop-color="#0BDC5F"/>
</linearGradient>
</defs>
</svg>
