<svg width="112" height="24" viewBox="0 0 112 24" fill="none" xmlns="http://www.w3.org/2000/svg">
<rect opacity="0.1" width="112" height="24" rx="2" fill="url(#paint0_linear)"/>
<path d="M9.06278 7.504H10.2628L12.1348 14.296H12.1588L14.1628 7.504H15.4828L17.4868 14.296H17.5108L19.3828 7.504H20.5828L18.1108 16H16.8988L14.8348 9.064H14.8108L12.7588 16H11.5468L9.06278 7.504ZM20.8713 11.008C21.1753 10.728 21.5273 10.52 21.9273 10.384C22.3273 10.24 22.7273 10.168 23.1273 10.168C23.5433 10.168 23.8993 10.22 24.1953 10.324C24.4993 10.428 24.7473 10.568 24.9393 10.744C25.1313 10.92 25.2713 11.124 25.3593 11.356C25.4553 11.58 25.5033 11.816 25.5033 12.064V14.968C25.5033 15.168 25.5073 15.352 25.5153 15.52C25.5233 15.688 25.5353 15.848 25.5513 16H24.5913C24.5673 15.712 24.5553 15.424 24.5553 15.136H24.5313C24.2913 15.504 24.0073 15.764 23.6793 15.916C23.3513 16.068 22.9713 16.144 22.5393 16.144C22.2753 16.144 22.0233 16.108 21.7833 16.036C21.5433 15.964 21.3313 15.856 21.1473 15.712C20.9713 15.568 20.8313 15.392 20.7273 15.184C20.6233 14.968 20.5713 14.72 20.5713 14.44C20.5713 14.072 20.6513 13.764 20.8113 13.516C20.9793 13.268 21.2033 13.068 21.4833 12.916C21.7713 12.756 22.1033 12.644 22.4793 12.58C22.8633 12.508 23.2713 12.472 23.7033 12.472H24.4953V12.232C24.4953 12.088 24.4673 11.944 24.4113 11.8C24.3553 11.656 24.2713 11.528 24.1593 11.416C24.0473 11.296 23.9073 11.204 23.7393 11.14C23.5713 11.068 23.3713 11.032 23.1393 11.032C22.9313 11.032 22.7473 11.052 22.5873 11.092C22.4353 11.132 22.2953 11.184 22.1673 11.248C22.0393 11.304 21.9233 11.372 21.8193 11.452C21.7153 11.532 21.6153 11.608 21.5193 11.68L20.8713 11.008ZM23.9193 13.264C23.6633 13.264 23.3993 13.28 23.1273 13.312C22.8633 13.336 22.6193 13.388 22.3953 13.468C22.1793 13.548 21.9993 13.66 21.8553 13.804C21.7193 13.948 21.6513 14.132 21.6513 14.356C21.6513 14.684 21.7593 14.92 21.9753 15.064C22.1993 15.208 22.4993 15.28 22.8753 15.28C23.1713 15.28 23.4233 15.232 23.6313 15.136C23.8393 15.032 24.0073 14.9 24.1353 14.74C24.2633 14.58 24.3553 14.404 24.4113 14.212C24.4673 14.012 24.4953 13.816 24.4953 13.624V13.264H23.9193ZM27.1539 10.312H28.2339V16H27.1539V10.312ZM26.9019 8.272C26.9019 8.056 26.9779 7.872 27.1299 7.72C27.2899 7.56 27.4779 7.48 27.6939 7.48C27.9099 7.48 28.0939 7.56 28.2459 7.72C28.4059 7.872 28.4859 8.056 28.4859 8.272C28.4859 8.488 28.4059 8.676 28.2459 8.836C28.0939 8.988 27.9099 9.064 27.6939 9.064C27.4779 9.064 27.2899 8.988 27.1299 8.836C26.9779 8.676 26.9019 8.488 26.9019 8.272ZM33.0007 11.248H31.4527V13.828C31.4527 13.988 31.4567 14.148 31.4647 14.308C31.4727 14.46 31.5007 14.6 31.5487 14.728C31.6047 14.848 31.6847 14.948 31.7887 15.028C31.9007 15.1 32.0607 15.136 32.2687 15.136C32.3967 15.136 32.5287 15.124 32.6647 15.1C32.8007 15.076 32.9247 15.032 33.0367 14.968V15.952C32.9087 16.024 32.7407 16.072 32.5327 16.096C32.3327 16.128 32.1767 16.144 32.0647 16.144C31.6487 16.144 31.3247 16.088 31.0927 15.976C30.8687 15.856 30.7007 15.704 30.5887 15.52C30.4847 15.336 30.4207 15.132 30.3967 14.908C30.3807 14.676 30.3727 14.444 30.3727 14.212V11.248H29.1247V10.312H30.3727V8.716H31.4527V10.312H33.0007V11.248ZM34.4781 10.312H35.5581V16H34.4781V10.312ZM34.2261 8.272C34.2261 8.056 34.3021 7.872 34.4541 7.72C34.6141 7.56 34.8021 7.48 35.0181 7.48C35.2341 7.48 35.4181 7.56 35.5701 7.72C35.7301 7.872 35.8101 8.056 35.8101 8.272C35.8101 8.488 35.7301 8.676 35.5701 8.836C35.4181 8.988 35.2341 9.064 35.0181 9.064C34.8021 9.064 34.6141 8.988 34.4541 8.836C34.3021 8.676 34.2261 8.488 34.2261 8.272ZM37.2769 10.312H38.3569V11.188H38.3809C38.5169 10.884 38.7529 10.64 39.0889 10.456C39.4249 10.264 39.8129 10.168 40.2529 10.168C40.5249 10.168 40.7849 10.212 41.0329 10.3C41.2889 10.38 41.5089 10.508 41.6929 10.684C41.8849 10.86 42.0369 11.088 42.1489 11.368C42.2609 11.64 42.3169 11.964 42.3169 12.34V16H41.2369V12.64C41.2369 12.376 41.2009 12.152 41.1289 11.968C41.0569 11.776 40.9609 11.624 40.8409 11.512C40.7209 11.392 40.5809 11.308 40.4209 11.26C40.2689 11.204 40.1089 11.176 39.9409 11.176C39.7169 11.176 39.5089 11.212 39.3169 11.284C39.1249 11.356 38.9569 11.472 38.8129 11.632C38.6689 11.784 38.5569 11.98 38.4769 12.22C38.3969 12.46 38.3569 12.744 38.3569 13.072V16H37.2769V10.312ZM49.6449 15.952C49.6449 16.384 49.5689 16.776 49.4169 17.128C49.2729 17.488 49.0649 17.796 48.7929 18.052C48.5209 18.316 48.1929 18.52 47.8089 18.664C47.4249 18.808 47.0009 18.88 46.5369 18.88C45.9929 18.88 45.4929 18.804 45.0369 18.652C44.5889 18.5 44.1609 18.236 43.7529 17.86L44.4849 16.948C44.7649 17.252 45.0689 17.48 45.3969 17.632C45.7249 17.792 46.0969 17.872 46.5129 17.872C46.9129 17.872 47.2449 17.812 47.5089 17.692C47.7729 17.58 47.9809 17.432 48.1329 17.248C48.2929 17.064 48.4049 16.852 48.4689 16.612C48.5329 16.38 48.5649 16.144 48.5649 15.904V15.064H48.5289C48.3209 15.408 48.0369 15.664 47.6769 15.832C47.3249 15.992 46.9529 16.072 46.5609 16.072C46.1449 16.072 45.7569 16 45.3969 15.856C45.0449 15.704 44.7409 15.5 44.4849 15.244C44.2289 14.98 44.0289 14.672 43.8849 14.32C43.7409 13.96 43.6689 13.572 43.6689 13.156C43.6689 12.74 43.7369 12.352 43.8729 11.992C44.0089 11.624 44.2009 11.304 44.4489 11.032C44.7049 10.76 45.0089 10.548 45.3609 10.396C45.7209 10.244 46.1209 10.168 46.5609 10.168C46.9449 10.168 47.3169 10.252 47.6769 10.42C48.0449 10.588 48.3329 10.824 48.5409 11.128H48.5649V10.312H49.6449V15.952ZM46.6929 11.176C46.4049 11.176 46.1449 11.228 45.9129 11.332C45.6809 11.428 45.4849 11.564 45.3249 11.74C45.1649 11.908 45.0409 12.116 44.9529 12.364C44.8649 12.604 44.8209 12.868 44.8209 13.156C44.8209 13.732 44.9889 14.196 45.3249 14.548C45.6609 14.892 46.1169 15.064 46.6929 15.064C47.2689 15.064 47.7249 14.892 48.0609 14.548C48.3969 14.196 48.5649 13.732 48.5649 13.156C48.5649 12.868 48.5209 12.604 48.4329 12.364C48.3449 12.116 48.2209 11.908 48.0609 11.74C47.9009 11.564 47.7049 11.428 47.4729 11.332C47.2409 11.228 46.9809 11.176 46.6929 11.176ZM57.5607 7.504H58.6047L62.2407 16H60.8967L60.0447 13.9H56.0007L55.1607 16H53.8167L57.5607 7.504ZM59.6247 12.892L58.0407 8.992H58.0167L56.4087 12.892H59.6247ZM63.0699 10.312H64.1499V11.128H64.1739C64.3819 10.824 64.6659 10.588 65.0259 10.42C65.3939 10.252 65.7699 10.168 66.1539 10.168C66.5939 10.168 66.9899 10.244 67.3419 10.396C67.7019 10.548 68.0059 10.76 68.2539 11.032C68.5099 11.304 68.7059 11.624 68.8419 11.992C68.9779 12.352 69.0459 12.74 69.0459 13.156C69.0459 13.58 68.9779 13.976 68.8419 14.344C68.7059 14.704 68.5099 15.02 68.2539 15.292C68.0059 15.556 67.7019 15.764 67.3419 15.916C66.9899 16.068 66.5939 16.144 66.1539 16.144C65.7459 16.144 65.3619 16.06 65.0019 15.892C64.6419 15.716 64.3659 15.48 64.1739 15.184H64.1499V19.384H63.0699V10.312ZM66.0219 11.176C65.7339 11.176 65.4739 11.228 65.2419 11.332C65.0099 11.428 64.8139 11.564 64.6539 11.74C64.4939 11.908 64.3699 12.116 64.2819 12.364C64.1939 12.604 64.1499 12.868 64.1499 13.156C64.1499 13.444 64.1939 13.712 64.2819 13.96C64.3699 14.2 64.4939 14.408 64.6539 14.584C64.8139 14.752 65.0099 14.888 65.2419 14.992C65.4739 15.088 65.7339 15.136 66.0219 15.136C66.3099 15.136 66.5699 15.088 66.8019 14.992C67.0339 14.888 67.2299 14.752 67.3899 14.584C67.5499 14.408 67.6739 14.2 67.7619 13.96C67.8499 13.712 67.8939 13.444 67.8939 13.156C67.8939 12.868 67.8499 12.604 67.7619 12.364C67.6739 12.116 67.5499 11.908 67.3899 11.74C67.2299 11.564 67.0339 11.428 66.8019 11.332C66.5699 11.228 66.3099 11.176 66.0219 11.176ZM70.4058 10.312H71.4858V11.128H71.5098C71.7178 10.824 72.0018 10.588 72.3618 10.42C72.7298 10.252 73.1058 10.168 73.4898 10.168C73.9298 10.168 74.3258 10.244 74.6778 10.396C75.0378 10.548 75.3418 10.76 75.5898 11.032C75.8458 11.304 76.0418 11.624 76.1778 11.992C76.3138 12.352 76.3818 12.74 76.3818 13.156C76.3818 13.58 76.3138 13.976 76.1778 14.344C76.0418 14.704 75.8458 15.02 75.5898 15.292C75.3418 15.556 75.0378 15.764 74.6778 15.916C74.3258 16.068 73.9298 16.144 73.4898 16.144C73.0818 16.144 72.6978 16.06 72.3378 15.892C71.9778 15.716 71.7018 15.48 71.5098 15.184H71.4858V19.384H70.4058V10.312ZM73.3578 11.176C73.0698 11.176 72.8098 11.228 72.5778 11.332C72.3458 11.428 72.1498 11.564 71.9898 11.74C71.8298 11.908 71.7058 12.116 71.6178 12.364C71.5298 12.604 71.4858 12.868 71.4858 13.156C71.4858 13.444 71.5298 13.712 71.6178 13.96C71.7058 14.2 71.8298 14.408 71.9898 14.584C72.1498 14.752 72.3458 14.888 72.5778 14.992C72.8098 15.088 73.0698 15.136 73.3578 15.136C73.6458 15.136 73.9058 15.088 74.1378 14.992C74.3698 14.888 74.5658 14.752 74.7258 14.584C74.8858 14.408 75.0098 14.2 75.0978 13.96C75.1858 13.712 75.2298 13.444 75.2298 13.156C75.2298 12.868 75.1858 12.604 75.0978 12.364C75.0098 12.116 74.8858 11.908 74.7258 11.74C74.5658 11.564 74.3698 11.428 74.1378 11.332C73.9058 11.228 73.6458 11.176 73.3578 11.176ZM77.7418 10.312H78.8218V11.188H78.8458C78.9178 11.036 79.0138 10.9 79.1338 10.78C79.2538 10.652 79.3858 10.544 79.5298 10.456C79.6818 10.368 79.8458 10.3 80.0218 10.252C80.1978 10.196 80.3738 10.168 80.5498 10.168C80.7258 10.168 80.8858 10.192 81.0298 10.24L80.9818 11.404C80.8938 11.38 80.8058 11.36 80.7178 11.344C80.6298 11.328 80.5418 11.32 80.4538 11.32C79.9258 11.32 79.5218 11.468 79.2418 11.764C78.9618 12.06 78.8218 12.52 78.8218 13.144V16H77.7418V10.312ZM82.8483 13.156C82.8483 13.444 82.8923 13.712 82.9803 13.96C83.0683 14.2 83.1923 14.408 83.3523 14.584C83.5123 14.752 83.7083 14.888 83.9403 14.992C84.1723 15.088 84.4323 15.136 84.7203 15.136C85.0083 15.136 85.2683 15.088 85.5003 14.992C85.7323 14.888 85.9283 14.752 86.0883 14.584C86.2483 14.408 86.3723 14.2 86.4603 13.96C86.5483 13.712 86.5923 13.444 86.5923 13.156C86.5923 12.868 86.5483 12.604 86.4603 12.364C86.3723 12.116 86.2483 11.908 86.0883 11.74C85.9283 11.564 85.7323 11.428 85.5003 11.332C85.2683 11.228 85.0083 11.176 84.7203 11.176C84.4323 11.176 84.1723 11.228 83.9403 11.332C83.7083 11.428 83.5123 11.564 83.3523 11.74C83.1923 11.908 83.0683 12.116 82.9803 12.364C82.8923 12.604 82.8483 12.868 82.8483 13.156ZM81.6963 13.156C81.6963 12.74 81.7723 12.352 81.9243 11.992C82.0843 11.632 82.3003 11.316 82.5723 11.044C82.8443 10.772 83.1643 10.56 83.5323 10.408C83.9003 10.248 84.2963 10.168 84.7203 10.168C85.1443 10.168 85.5403 10.248 85.9083 10.408C86.2763 10.56 86.5963 10.772 86.8683 11.044C87.1403 11.316 87.3523 11.632 87.5043 11.992C87.6643 12.352 87.7443 12.74 87.7443 13.156C87.7443 13.572 87.6643 13.964 87.5043 14.332C87.3523 14.692 87.1403 15.008 86.8683 15.28C86.5963 15.544 86.2763 15.756 85.9083 15.916C85.5403 16.068 85.1443 16.144 84.7203 16.144C84.2963 16.144 83.9003 16.068 83.5323 15.916C83.1643 15.756 82.8443 15.544 82.5723 15.28C82.3003 15.008 82.0843 14.692 81.9243 14.332C81.7723 13.964 81.6963 13.572 81.6963 13.156ZM88.4133 10.312H89.6613L91.3652 14.668L92.9973 10.312H94.1493L91.9173 16H90.7293L88.4133 10.312ZM95.9133 13.552C95.9133 13.8 95.9653 14.028 96.0693 14.236C96.1813 14.436 96.3253 14.608 96.5013 14.752C96.6773 14.896 96.8813 15.008 97.1133 15.088C97.3453 15.168 97.5853 15.208 97.8333 15.208C98.1693 15.208 98.4613 15.132 98.7093 14.98C98.9573 14.82 99.1853 14.612 99.3933 14.356L100.209 14.98C99.6093 15.756 98.7693 16.144 97.6893 16.144C97.2413 16.144 96.8333 16.068 96.4653 15.916C96.1053 15.764 95.7973 15.556 95.5413 15.292C95.2933 15.02 95.1013 14.704 94.9653 14.344C94.8293 13.976 94.7613 13.58 94.7613 13.156C94.7613 12.732 94.8333 12.34 94.9773 11.98C95.1293 11.612 95.3333 11.296 95.5893 11.032C95.8533 10.76 96.1653 10.548 96.5253 10.396C96.8853 10.244 97.2773 10.168 97.7013 10.168C98.2053 10.168 98.6293 10.256 98.9733 10.432C99.3253 10.608 99.6133 10.84 99.8373 11.128C100.061 11.408 100.221 11.728 100.317 12.088C100.421 12.44 100.473 12.8 100.473 13.168V13.552H95.9133ZM99.3213 12.688C99.3133 12.448 99.2733 12.228 99.2013 12.028C99.1373 11.828 99.0373 11.656 98.9013 11.512C98.7653 11.36 98.5933 11.244 98.3853 11.164C98.1853 11.076 97.9493 11.032 97.6773 11.032C97.4133 11.032 97.1693 11.084 96.9453 11.188C96.7293 11.284 96.5453 11.412 96.3933 11.572C96.2413 11.732 96.1213 11.912 96.0333 12.112C95.9533 12.304 95.9133 12.496 95.9133 12.688H99.3213Z" fill="#FF9900"/>
<defs>
<linearGradient id="paint0_linear" x1="56" y1="0" x2="56" y2="24" gradientUnits="userSpaceOnUse">
<stop stop-color="#FF9900"/>
<stop offset="1" stop-color="#FF9900"/>
</linearGradient>
</defs>
</svg>
