<svg width="112" height="24" viewBox="0 0 112 24" fill="none" xmlns="http://www.w3.org/2000/svg">
<rect opacity="0.1" width="112" height="24" rx="2" fill="url(#paint0_linear)"/>
<path d="M9.46903 7.504H10.669L12.541 14.296H12.565L14.569 7.504H15.889L17.893 14.296H17.917L19.789 7.504H20.989L18.517 16H17.305L15.241 9.064H15.217L13.165 16H11.953L9.46903 7.504ZM21.2775 11.008C21.5815 10.728 21.9335 10.52 22.3335 10.384C22.7335 10.24 23.1335 10.168 23.5335 10.168C23.9495 10.168 24.3055 10.22 24.6015 10.324C24.9055 10.428 25.1535 10.568 25.3455 10.744C25.5375 10.92 25.6775 11.124 25.7655 11.356C25.8615 11.58 25.9095 11.816 25.9095 12.064V14.968C25.9095 15.168 25.9135 15.352 25.9215 15.52C25.9295 15.688 25.9415 15.848 25.9575 16H24.9975C24.9735 15.712 24.9615 15.424 24.9615 15.136H24.9375C24.6975 15.504 24.4135 15.764 24.0855 15.916C23.7575 16.068 23.3775 16.144 22.9455 16.144C22.6815 16.144 22.4295 16.108 22.1895 16.036C21.9495 15.964 21.7375 15.856 21.5535 15.712C21.3775 15.568 21.2375 15.392 21.1335 15.184C21.0295 14.968 20.9775 14.72 20.9775 14.44C20.9775 14.072 21.0575 13.764 21.2175 13.516C21.3855 13.268 21.6095 13.068 21.8895 12.916C22.1775 12.756 22.5095 12.644 22.8855 12.58C23.2695 12.508 23.6775 12.472 24.1095 12.472H24.9015V12.232C24.9015 12.088 24.8735 11.944 24.8175 11.8C24.7615 11.656 24.6775 11.528 24.5655 11.416C24.4535 11.296 24.3135 11.204 24.1455 11.14C23.9775 11.068 23.7775 11.032 23.5455 11.032C23.3375 11.032 23.1535 11.052 22.9935 11.092C22.8415 11.132 22.7015 11.184 22.5735 11.248C22.4455 11.304 22.3295 11.372 22.2255 11.452C22.1215 11.532 22.0215 11.608 21.9255 11.68L21.2775 11.008ZM24.3255 13.264C24.0695 13.264 23.8055 13.28 23.5335 13.312C23.2695 13.336 23.0255 13.388 22.8015 13.468C22.5855 13.548 22.4055 13.66 22.2615 13.804C22.1255 13.948 22.0575 14.132 22.0575 14.356C22.0575 14.684 22.1655 14.92 22.3815 15.064C22.6055 15.208 22.9055 15.28 23.2815 15.28C23.5775 15.28 23.8295 15.232 24.0375 15.136C24.2455 15.032 24.4135 14.9 24.5415 14.74C24.6695 14.58 24.7615 14.404 24.8175 14.212C24.8735 14.012 24.9015 13.816 24.9015 13.624V13.264H24.3255ZM27.5602 10.312H28.6402V16H27.5602V10.312ZM27.3082 8.272C27.3082 8.056 27.3842 7.872 27.5362 7.72C27.6962 7.56 27.8842 7.48 28.1002 7.48C28.3162 7.48 28.5002 7.56 28.6522 7.72C28.8122 7.872 28.8922 8.056 28.8922 8.272C28.8922 8.488 28.8122 8.676 28.6522 8.836C28.5002 8.988 28.3162 9.064 28.1002 9.064C27.8842 9.064 27.6962 8.988 27.5362 8.836C27.3842 8.676 27.3082 8.488 27.3082 8.272ZM33.407 11.248H31.859V13.828C31.859 13.988 31.863 14.148 31.871 14.308C31.879 14.46 31.907 14.6 31.955 14.728C32.011 14.848 32.091 14.948 32.195 15.028C32.307 15.1 32.467 15.136 32.675 15.136C32.803 15.136 32.935 15.124 33.071 15.1C33.207 15.076 33.331 15.032 33.443 14.968V15.952C33.315 16.024 33.147 16.072 32.939 16.096C32.739 16.128 32.583 16.144 32.471 16.144C32.055 16.144 31.731 16.088 31.499 15.976C31.275 15.856 31.107 15.704 30.995 15.52C30.891 15.336 30.827 15.132 30.803 14.908C30.787 14.676 30.779 14.444 30.779 14.212V11.248H29.531V10.312H30.779V8.716H31.859V10.312H33.407V11.248ZM34.8844 10.312H35.9644V16H34.8844V10.312ZM34.6324 8.272C34.6324 8.056 34.7084 7.872 34.8604 7.72C35.0204 7.56 35.2084 7.48 35.4244 7.48C35.6404 7.48 35.8244 7.56 35.9764 7.72C36.1364 7.872 36.2164 8.056 36.2164 8.272C36.2164 8.488 36.1364 8.676 35.9764 8.836C35.8244 8.988 35.6404 9.064 35.4244 9.064C35.2084 9.064 35.0204 8.988 34.8604 8.836C34.7084 8.676 34.6324 8.488 34.6324 8.272ZM37.6832 10.312H38.7632V11.188H38.7872C38.9232 10.884 39.1592 10.64 39.4952 10.456C39.8312 10.264 40.2192 10.168 40.6592 10.168C40.9312 10.168 41.1912 10.212 41.4392 10.3C41.6952 10.38 41.9152 10.508 42.0992 10.684C42.2912 10.86 42.4432 11.088 42.5552 11.368C42.6672 11.64 42.7232 11.964 42.7232 12.34V16H41.6432V12.64C41.6432 12.376 41.6072 12.152 41.5352 11.968C41.4632 11.776 41.3672 11.624 41.2472 11.512C41.1272 11.392 40.9872 11.308 40.8272 11.26C40.6752 11.204 40.5152 11.176 40.3472 11.176C40.1232 11.176 39.9152 11.212 39.7232 11.284C39.5312 11.356 39.3632 11.472 39.2192 11.632C39.0752 11.784 38.9632 11.98 38.8832 12.22C38.8032 12.46 38.7632 12.744 38.7632 13.072V16H37.6832V10.312ZM50.0512 15.952C50.0512 16.384 49.9752 16.776 49.8232 17.128C49.6792 17.488 49.4712 17.796 49.1992 18.052C48.9272 18.316 48.5992 18.52 48.2152 18.664C47.8312 18.808 47.4072 18.88 46.9432 18.88C46.3992 18.88 45.8992 18.804 45.4432 18.652C44.9952 18.5 44.5672 18.236 44.1592 17.86L44.8912 16.948C45.1712 17.252 45.4752 17.48 45.8032 17.632C46.1312 17.792 46.5032 17.872 46.9192 17.872C47.3192 17.872 47.6512 17.812 47.9152 17.692C48.1792 17.58 48.3872 17.432 48.5392 17.248C48.6992 17.064 48.8112 16.852 48.8752 16.612C48.9392 16.38 48.9712 16.144 48.9712 15.904V15.064H48.9352C48.7272 15.408 48.4432 15.664 48.0832 15.832C47.7312 15.992 47.3592 16.072 46.9672 16.072C46.5512 16.072 46.1632 16 45.8032 15.856C45.4512 15.704 45.1472 15.5 44.8912 15.244C44.6352 14.98 44.4352 14.672 44.2912 14.32C44.1472 13.96 44.0752 13.572 44.0752 13.156C44.0752 12.74 44.1432 12.352 44.2792 11.992C44.4152 11.624 44.6072 11.304 44.8552 11.032C45.1112 10.76 45.4152 10.548 45.7672 10.396C46.1272 10.244 46.5272 10.168 46.9672 10.168C47.3512 10.168 47.7232 10.252 48.0832 10.42C48.4512 10.588 48.7392 10.824 48.9472 11.128H48.9712V10.312H50.0512V15.952ZM47.0992 11.176C46.8112 11.176 46.5512 11.228 46.3192 11.332C46.0872 11.428 45.8912 11.564 45.7312 11.74C45.5712 11.908 45.4472 12.116 45.3592 12.364C45.2712 12.604 45.2272 12.868 45.2272 13.156C45.2272 13.732 45.3952 14.196 45.7312 14.548C46.0672 14.892 46.5232 15.064 47.0992 15.064C47.6752 15.064 48.1312 14.892 48.4672 14.548C48.8032 14.196 48.9712 13.732 48.9712 13.156C48.9712 12.868 48.9272 12.604 48.8392 12.364C48.7512 12.116 48.6272 11.908 48.4672 11.74C48.3072 11.564 48.1112 11.428 47.8792 11.332C47.6472 11.228 47.3872 11.176 47.0992 11.176ZM55.3029 7.504H58.2909C58.8349 7.504 59.2829 7.58 59.6349 7.732C59.9869 7.876 60.2629 8.064 60.4629 8.296C60.6709 8.52 60.8149 8.776 60.8949 9.064C60.9749 9.344 61.0149 9.616 61.0149 9.88C61.0149 10.144 60.9749 10.42 60.8949 10.708C60.8149 10.988 60.6709 11.244 60.4629 11.476C60.2629 11.7 59.9869 11.888 59.6349 12.04C59.2829 12.184 58.8349 12.256 58.2909 12.256H56.4549V16H55.3029V7.504ZM56.4549 11.248H57.9669C58.1909 11.248 58.4109 11.232 58.6269 11.2C58.8509 11.16 59.0469 11.092 59.2149 10.996C59.3909 10.9 59.5309 10.764 59.6349 10.588C59.7389 10.404 59.7909 10.168 59.7909 9.88C59.7909 9.592 59.7389 9.36 59.6349 9.184C59.5309 9 59.3909 8.86 59.2149 8.764C59.0469 8.668 58.8509 8.604 58.6269 8.572C58.4109 8.532 58.1909 8.512 57.9669 8.512H56.4549V11.248ZM62.1642 11.008C62.4682 10.728 62.8202 10.52 63.2202 10.384C63.6202 10.24 64.0202 10.168 64.4202 10.168C64.8362 10.168 65.1922 10.22 65.4882 10.324C65.7922 10.428 66.0402 10.568 66.2322 10.744C66.4242 10.92 66.5642 11.124 66.6522 11.356C66.7482 11.58 66.7962 11.816 66.7962 12.064V14.968C66.7962 15.168 66.8002 15.352 66.8082 15.52C66.8162 15.688 66.8282 15.848 66.8442 16H65.8842C65.8602 15.712 65.8482 15.424 65.8482 15.136H65.8242C65.5842 15.504 65.3002 15.764 64.9722 15.916C64.6442 16.068 64.2642 16.144 63.8322 16.144C63.5682 16.144 63.3162 16.108 63.0762 16.036C62.8362 15.964 62.6242 15.856 62.4402 15.712C62.2642 15.568 62.1242 15.392 62.0202 15.184C61.9162 14.968 61.8642 14.72 61.8642 14.44C61.8642 14.072 61.9442 13.764 62.1042 13.516C62.2722 13.268 62.4962 13.068 62.7762 12.916C63.0642 12.756 63.3962 12.644 63.7722 12.58C64.1562 12.508 64.5642 12.472 64.9962 12.472H65.7882V12.232C65.7882 12.088 65.7602 11.944 65.7042 11.8C65.6482 11.656 65.5642 11.528 65.4522 11.416C65.3402 11.296 65.2002 11.204 65.0322 11.14C64.8642 11.068 64.6642 11.032 64.4322 11.032C64.2242 11.032 64.0402 11.052 63.8802 11.092C63.7282 11.132 63.5882 11.184 63.4602 11.248C63.3322 11.304 63.2162 11.372 63.1122 11.452C63.0082 11.532 62.9082 11.608 62.8122 11.68L62.1642 11.008ZM65.2122 13.264C64.9562 13.264 64.6922 13.28 64.4202 13.312C64.1562 13.336 63.9122 13.388 63.6882 13.468C63.4722 13.548 63.2922 13.66 63.1482 13.804C63.0122 13.948 62.9442 14.132 62.9442 14.356C62.9442 14.684 63.0522 14.92 63.2682 15.064C63.4922 15.208 63.7922 15.28 64.1682 15.28C64.4642 15.28 64.7162 15.232 64.9242 15.136C65.1322 15.032 65.3002 14.9 65.4282 14.74C65.5562 14.58 65.6482 14.404 65.7042 14.212C65.7602 14.012 65.7882 13.816 65.7882 13.624V13.264H65.2122ZM67.6789 10.312H68.9269L70.6189 14.752H70.6429L72.2509 10.312H73.4149L70.7149 17.224C70.6189 17.472 70.5189 17.696 70.4149 17.896C70.3109 18.104 70.1869 18.28 70.0429 18.424C69.8989 18.568 69.7229 18.68 69.5149 18.76C69.3149 18.84 69.0669 18.88 68.7709 18.88C68.6109 18.88 68.4469 18.868 68.2789 18.844C68.1189 18.828 67.9629 18.788 67.8109 18.724L67.9429 17.74C68.1589 17.828 68.3749 17.872 68.5909 17.872C68.7589 17.872 68.8989 17.848 69.0109 17.8C69.1309 17.76 69.2309 17.696 69.3109 17.608C69.3989 17.528 69.4709 17.432 69.5269 17.32C69.5829 17.208 69.6389 17.08 69.6949 16.936L70.0429 16.036L67.6789 10.312ZM74.3629 10.312H75.3709V11.2H75.3949C75.4189 11.12 75.4789 11.02 75.5749 10.9C75.6789 10.78 75.8069 10.668 75.9589 10.564C76.1189 10.452 76.3029 10.36 76.5109 10.288C76.7269 10.208 76.9629 10.168 77.2189 10.168C77.6429 10.168 77.9989 10.256 78.2869 10.432C78.5749 10.608 78.8109 10.872 78.9949 11.224C79.1789 10.872 79.4389 10.608 79.7749 10.432C80.1109 10.256 80.4509 10.168 80.7949 10.168C81.2349 10.168 81.5949 10.24 81.8749 10.384C82.1549 10.528 82.3749 10.72 82.5349 10.96C82.6949 11.192 82.8029 11.46 82.8589 11.764C82.9229 12.06 82.9549 12.368 82.9549 12.688V16H81.8749V12.832C81.8749 12.616 81.8589 12.408 81.8269 12.208C81.8029 12.008 81.7469 11.832 81.6589 11.68C81.5709 11.528 81.4469 11.408 81.2869 11.32C81.1269 11.224 80.9149 11.176 80.6509 11.176C80.1309 11.176 79.7589 11.336 79.5349 11.656C79.3109 11.976 79.1989 12.388 79.1989 12.892V16H78.1189V13.024C78.1189 12.752 78.1029 12.504 78.0709 12.28C78.0469 12.056 77.9909 11.864 77.9029 11.704C77.8229 11.536 77.7029 11.408 77.5429 11.32C77.3909 11.224 77.1829 11.176 76.9189 11.176C76.7269 11.176 76.5389 11.216 76.3549 11.296C76.1789 11.368 76.0229 11.48 75.8869 11.632C75.7509 11.784 75.6429 11.98 75.5629 12.22C75.4829 12.452 75.4429 12.728 75.4429 13.048V16H74.3629V10.312ZM85.3976 13.552C85.3976 13.8 85.4496 14.028 85.5536 14.236C85.6656 14.436 85.8096 14.608 85.9856 14.752C86.1616 14.896 86.3656 15.008 86.5976 15.088C86.8296 15.168 87.0696 15.208 87.3176 15.208C87.6536 15.208 87.9456 15.132 88.1936 14.98C88.4416 14.82 88.6696 14.612 88.8776 14.356L89.6936 14.98C89.0936 15.756 88.2536 16.144 87.1736 16.144C86.7256 16.144 86.3176 16.068 85.9496 15.916C85.5896 15.764 85.2816 15.556 85.0256 15.292C84.7776 15.02 84.5856 14.704 84.4496 14.344C84.3136 13.976 84.2456 13.58 84.2456 13.156C84.2456 12.732 84.3176 12.34 84.4616 11.98C84.6136 11.612 84.8176 11.296 85.0736 11.032C85.3376 10.76 85.6496 10.548 86.0096 10.396C86.3696 10.244 86.7616 10.168 87.1856 10.168C87.6896 10.168 88.1136 10.256 88.4576 10.432C88.8096 10.608 89.0976 10.84 89.3216 11.128C89.5456 11.408 89.7056 11.728 89.8016 12.088C89.9056 12.44 89.9576 12.8 89.9576 13.168V13.552H85.3976ZM88.8056 12.688C88.7976 12.448 88.7576 12.228 88.6856 12.028C88.6216 11.828 88.5216 11.656 88.3856 11.512C88.2496 11.36 88.0776 11.244 87.8696 11.164C87.6696 11.076 87.4336 11.032 87.1616 11.032C86.8976 11.032 86.6536 11.084 86.4296 11.188C86.2136 11.284 86.0296 11.412 85.8776 11.572C85.7256 11.732 85.6056 11.912 85.5176 12.112C85.4376 12.304 85.3976 12.496 85.3976 12.688H88.8056ZM91.2496 10.312H92.3296V11.188H92.3536C92.4896 10.884 92.7256 10.64 93.0616 10.456C93.3976 10.264 93.7856 10.168 94.2256 10.168C94.4976 10.168 94.7576 10.212 95.0056 10.3C95.2616 10.38 95.4816 10.508 95.6656 10.684C95.8576 10.86 96.0096 11.088 96.1216 11.368C96.2336 11.64 96.2896 11.964 96.2896 12.34V16H95.2096V12.64C95.2096 12.376 95.1736 12.152 95.1016 11.968C95.0296 11.776 94.9336 11.624 94.8136 11.512C94.6936 11.392 94.5536 11.308 94.3936 11.26C94.2416 11.204 94.0816 11.176 93.9136 11.176C93.6896 11.176 93.4816 11.212 93.2896 11.284C93.0976 11.356 92.9296 11.472 92.7856 11.632C92.6416 11.784 92.5296 11.98 92.4496 12.22C92.3696 12.46 92.3296 12.744 92.3296 13.072V16H91.2496V10.312ZM100.966 11.248H99.4176V13.828C99.4176 13.988 99.4216 14.148 99.4296 14.308C99.4376 14.46 99.4656 14.6 99.5136 14.728C99.5696 14.848 99.6496 14.948 99.7536 15.028C99.8656 15.1 100.026 15.136 100.234 15.136C100.362 15.136 100.494 15.124 100.63 15.1C100.766 15.076 100.89 15.032 101.002 14.968V15.952C100.874 16.024 100.706 16.072 100.498 16.096C100.298 16.128 100.142 16.144 100.03 16.144C99.6136 16.144 99.2896 16.088 99.0576 15.976C98.8336 15.856 98.6656 15.704 98.5536 15.52C98.4496 15.336 98.3856 15.132 98.3616 14.908C98.3456 14.676 98.3376 14.444 98.3376 14.212V11.248H97.0896V10.312H98.3376V8.716H99.4176V10.312H100.966V11.248Z" fill="#EC7A7A"/>
<defs>
<linearGradient id="paint0_linear" x1="56" y1="0" x2="56" y2="24" gradientUnits="userSpaceOnUse">
<stop stop-color="#EC7A7A"/>
<stop offset="1" stop-color="#EC7A7A"/>
</linearGradient>
</defs>
</svg>
